<mxfile host="Electron" modified="2024-07-05T07:19:21.438Z" agent="Mozilla/5.0 (Windows NT 10.0; Win64; x64) AppleWebKit/537.36 (KHTML, like Gecko) draw.io/24.5.3 Chrome/124.0.6367.207 Electron/30.0.6 Safari/537.36" etag="l4L52GWZ8qe7vanTLoNm" version="24.5.3" type="device">
  <diagram name="PÃ¡gina-1" id="mNTQlY08-j65XR8_kRrh">
    <mxGraphModel dx="1173" dy="699" grid="1" gridSize="10" guides="1" tooltips="1" connect="0" arrows="1" fold="1" page="1" pageScale="1" pageWidth="1654" pageHeight="1169" background="none" math="0" shadow="0">
      <root>
        <mxCell id="0" />
        <mxCell id="1" parent="0" />
        <mxCell id="Xn4P08dQ9qw3xw5o0RPB-87" value="" style="html=1;whiteSpace=wrap;sketch=1;hachureGap=4;jiggle=2;curveFitting=1;fontFamily=Architects Daughter;fontSource=https%3A%2F%2Ffonts.googleapis.com%2Fcss%3Ffamily%3DArchitects%2BDaughter;" vertex="1" parent="1">
          <mxGeometry x="80" y="180" width="1340" height="880" as="geometry" />
        </mxCell>
        <mxCell id="Xn4P08dQ9qw3xw5o0RPB-1" value="&lt;div&gt;&amp;lt;&amp;lt;abstract&amp;gt;&amp;gt;&lt;/div&gt;&lt;div&gt;ElementoForm&lt;/div&gt;" style="swimlane;fontStyle=1;align=center;verticalAlign=top;childLayout=stackLayout;horizontal=1;startSize=40;horizontalStack=0;resizeParent=1;resizeParentMax=0;resizeLast=0;collapsible=1;marginBottom=0;whiteSpace=wrap;html=1;" vertex="1" parent="1">
          <mxGeometry x="860" y="350" width="170" height="260" as="geometry" />
        </mxCell>
        <mxCell id="Xn4P08dQ9qw3xw5o0RPB-2" value="# nombre : String" style="text;strokeColor=none;fillColor=none;align=left;verticalAlign=top;spacingLeft=4;spacingRight=4;overflow=hidden;rotatable=0;points=[[0,0.5],[1,0.5]];portConstraint=eastwest;whiteSpace=wrap;html=1;" vertex="1" parent="Xn4P08dQ9qw3xw5o0RPB-1">
          <mxGeometry y="40" width="170" height="26" as="geometry" />
        </mxCell>
        <mxCell id="Xn4P08dQ9qw3xw5o0RPB-22" value="# valor :&amp;nbsp; String" style="text;strokeColor=none;fillColor=none;align=left;verticalAlign=top;spacingLeft=4;spacingRight=4;overflow=hidden;rotatable=0;points=[[0,0.5],[1,0.5]];portConstraint=eastwest;whiteSpace=wrap;html=1;" vertex="1" parent="Xn4P08dQ9qw3xw5o0RPB-1">
          <mxGeometry y="66" width="170" height="26" as="geometry" />
        </mxCell>
        <mxCell id="Xn4P08dQ9qw3xw5o0RPB-23" value="# validador : List" style="text;strokeColor=none;fillColor=none;align=left;verticalAlign=top;spacingLeft=4;spacingRight=4;overflow=hidden;rotatable=0;points=[[0,0.5],[1,0.5]];portConstraint=eastwest;whiteSpace=wrap;html=1;" vertex="1" parent="Xn4P08dQ9qw3xw5o0RPB-1">
          <mxGeometry y="92" width="170" height="26" as="geometry" />
        </mxCell>
        <mxCell id="Xn4P08dQ9qw3xw5o0RPB-24" value="# errores : List" style="text;strokeColor=none;fillColor=none;align=left;verticalAlign=top;spacingLeft=4;spacingRight=4;overflow=hidden;rotatable=0;points=[[0,0.5],[1,0.5]];portConstraint=eastwest;whiteSpace=wrap;html=1;" vertex="1" parent="Xn4P08dQ9qw3xw5o0RPB-1">
          <mxGeometry y="118" width="170" height="26" as="geometry" />
        </mxCell>
        <mxCell id="Xn4P08dQ9qw3xw5o0RPB-3" value="" style="line;strokeWidth=1;fillColor=none;align=left;verticalAlign=middle;spacingTop=-1;spacingLeft=3;spacingRight=3;rotatable=0;labelPosition=right;points=[];portConstraint=eastwest;strokeColor=inherit;" vertex="1" parent="Xn4P08dQ9qw3xw5o0RPB-1">
          <mxGeometry y="144" width="170" height="8" as="geometry" />
        </mxCell>
        <mxCell id="Xn4P08dQ9qw3xw5o0RPB-4" value="&amp;nbsp;+ dibujarHtml(): String" style="text;strokeColor=none;fillColor=none;align=left;verticalAlign=top;spacingLeft=4;spacingRight=4;overflow=hidden;rotatable=0;points=[[0,0.5],[1,0.5]];portConstraint=eastwest;whiteSpace=wrap;html=1;" vertex="1" parent="Xn4P08dQ9qw3xw5o0RPB-1">
          <mxGeometry y="152" width="170" height="26" as="geometry" />
        </mxCell>
        <mxCell id="Xn4P08dQ9qw3xw5o0RPB-25" value="&amp;nbsp;+ esValido() : Boolean" style="text;strokeColor=none;fillColor=none;align=left;verticalAlign=top;spacingLeft=4;spacingRight=4;overflow=hidden;rotatable=0;points=[[0,0.5],[1,0.5]];portConstraint=eastwest;whiteSpace=wrap;html=1;" vertex="1" parent="Xn4P08dQ9qw3xw5o0RPB-1">
          <mxGeometry y="178" width="170" height="26" as="geometry" />
        </mxCell>
        <mxCell id="Xn4P08dQ9qw3xw5o0RPB-26" value="&amp;nbsp;+ addValido(validador:Validador) : void" style="text;strokeColor=none;fillColor=none;align=left;verticalAlign=top;spacingLeft=4;spacingRight=4;overflow=hidden;rotatable=0;points=[[0,0.5],[1,0.5]];portConstraint=eastwest;whiteSpace=wrap;html=1;" vertex="1" parent="Xn4P08dQ9qw3xw5o0RPB-1">
          <mxGeometry y="204" width="170" height="56" as="geometry" />
        </mxCell>
        <mxCell id="Xn4P08dQ9qw3xw5o0RPB-5" value="SelectForm" style="swimlane;fontStyle=1;align=center;verticalAlign=top;childLayout=stackLayout;horizontal=1;startSize=26;horizontalStack=0;resizeParent=1;resizeParentMax=0;resizeLast=0;collapsible=1;marginBottom=0;whiteSpace=wrap;html=1;" vertex="1" parent="1">
          <mxGeometry x="590" y="730" width="160" height="140" as="geometry" />
        </mxCell>
        <mxCell id="Xn4P08dQ9qw3xw5o0RPB-6" value="- opciones : List" style="text;strokeColor=none;fillColor=none;align=left;verticalAlign=top;spacingLeft=4;spacingRight=4;overflow=hidden;rotatable=0;points=[[0,0.5],[1,0.5]];portConstraint=eastwest;whiteSpace=wrap;html=1;" vertex="1" parent="Xn4P08dQ9qw3xw5o0RPB-5">
          <mxGeometry y="26" width="160" height="26" as="geometry" />
        </mxCell>
        <mxCell id="Xn4P08dQ9qw3xw5o0RPB-7" value="" style="line;strokeWidth=1;fillColor=none;align=left;verticalAlign=middle;spacingTop=-1;spacingLeft=3;spacingRight=3;rotatable=0;labelPosition=right;points=[];portConstraint=eastwest;strokeColor=inherit;" vertex="1" parent="Xn4P08dQ9qw3xw5o0RPB-5">
          <mxGeometry y="52" width="160" height="8" as="geometry" />
        </mxCell>
        <mxCell id="Xn4P08dQ9qw3xw5o0RPB-8" value="&amp;nbsp;+ dibujarHtml(): String" style="text;strokeColor=none;fillColor=none;align=left;verticalAlign=top;spacingLeft=4;spacingRight=4;overflow=hidden;rotatable=0;points=[[0,0.5],[1,0.5]];portConstraint=eastwest;whiteSpace=wrap;html=1;" vertex="1" parent="Xn4P08dQ9qw3xw5o0RPB-5">
          <mxGeometry y="60" width="160" height="26" as="geometry" />
        </mxCell>
        <mxCell id="Xn4P08dQ9qw3xw5o0RPB-36" value="+ addOpcion(opcion : Opcion) : void" style="text;strokeColor=none;fillColor=none;align=left;verticalAlign=top;spacingLeft=4;spacingRight=4;overflow=hidden;rotatable=0;points=[[0,0.5],[1,0.5]];portConstraint=eastwest;whiteSpace=wrap;html=1;" vertex="1" parent="Xn4P08dQ9qw3xw5o0RPB-5">
          <mxGeometry y="86" width="160" height="54" as="geometry" />
        </mxCell>
        <mxCell id="Xn4P08dQ9qw3xw5o0RPB-9" value="InputForm" style="swimlane;fontStyle=1;align=center;verticalAlign=top;childLayout=stackLayout;horizontal=1;startSize=26;horizontalStack=0;resizeParent=1;resizeParentMax=0;resizeLast=0;collapsible=1;marginBottom=0;whiteSpace=wrap;html=1;" vertex="1" parent="1">
          <mxGeometry x="870" y="770" width="160" height="86" as="geometry" />
        </mxCell>
        <mxCell id="Xn4P08dQ9qw3xw5o0RPB-10" value="- tipo : String = text" style="text;strokeColor=none;fillColor=none;align=left;verticalAlign=top;spacingLeft=4;spacingRight=4;overflow=hidden;rotatable=0;points=[[0,0.5],[1,0.5]];portConstraint=eastwest;whiteSpace=wrap;html=1;" vertex="1" parent="Xn4P08dQ9qw3xw5o0RPB-9">
          <mxGeometry y="26" width="160" height="26" as="geometry" />
        </mxCell>
        <mxCell id="Xn4P08dQ9qw3xw5o0RPB-11" value="" style="line;strokeWidth=1;fillColor=none;align=left;verticalAlign=middle;spacingTop=-1;spacingLeft=3;spacingRight=3;rotatable=0;labelPosition=right;points=[];portConstraint=eastwest;strokeColor=inherit;" vertex="1" parent="Xn4P08dQ9qw3xw5o0RPB-9">
          <mxGeometry y="52" width="160" height="8" as="geometry" />
        </mxCell>
        <mxCell id="Xn4P08dQ9qw3xw5o0RPB-12" value="&amp;nbsp;+ dibujarHtml(): String" style="text;strokeColor=none;fillColor=none;align=left;verticalAlign=top;spacingLeft=4;spacingRight=4;overflow=hidden;rotatable=0;points=[[0,0.5],[1,0.5]];portConstraint=eastwest;whiteSpace=wrap;html=1;" vertex="1" parent="Xn4P08dQ9qw3xw5o0RPB-9">
          <mxGeometry y="60" width="160" height="26" as="geometry" />
        </mxCell>
        <mxCell id="Xn4P08dQ9qw3xw5o0RPB-13" value="TextareaForm" style="swimlane;fontStyle=1;align=center;verticalAlign=top;childLayout=stackLayout;horizontal=1;startSize=26;horizontalStack=0;resizeParent=1;resizeParentMax=0;resizeLast=0;collapsible=1;marginBottom=0;whiteSpace=wrap;html=1;" vertex="1" parent="1">
          <mxGeometry x="1120" y="610" width="160" height="112" as="geometry" />
        </mxCell>
        <mxCell id="Xn4P08dQ9qw3xw5o0RPB-14" value="&amp;nbsp; - filas : Integer" style="text;strokeColor=none;fillColor=none;align=left;verticalAlign=top;spacingLeft=4;spacingRight=4;overflow=hidden;rotatable=0;points=[[0,0.5],[1,0.5]];portConstraint=eastwest;whiteSpace=wrap;html=1;" vertex="1" parent="Xn4P08dQ9qw3xw5o0RPB-13">
          <mxGeometry y="26" width="160" height="26" as="geometry" />
        </mxCell>
        <mxCell id="Xn4P08dQ9qw3xw5o0RPB-27" value="&amp;nbsp; - columnas : Integer" style="text;strokeColor=none;fillColor=none;align=left;verticalAlign=top;spacingLeft=4;spacingRight=4;overflow=hidden;rotatable=0;points=[[0,0.5],[1,0.5]];portConstraint=eastwest;whiteSpace=wrap;html=1;" vertex="1" parent="Xn4P08dQ9qw3xw5o0RPB-13">
          <mxGeometry y="52" width="160" height="26" as="geometry" />
        </mxCell>
        <mxCell id="Xn4P08dQ9qw3xw5o0RPB-15" value="" style="line;strokeWidth=1;fillColor=none;align=left;verticalAlign=middle;spacingTop=-1;spacingLeft=3;spacingRight=3;rotatable=0;labelPosition=right;points=[];portConstraint=eastwest;strokeColor=inherit;" vertex="1" parent="Xn4P08dQ9qw3xw5o0RPB-13">
          <mxGeometry y="78" width="160" height="8" as="geometry" />
        </mxCell>
        <mxCell id="Xn4P08dQ9qw3xw5o0RPB-16" value="&amp;nbsp;+ dibujarHtml(): String" style="text;strokeColor=none;fillColor=none;align=left;verticalAlign=top;spacingLeft=4;spacingRight=4;overflow=hidden;rotatable=0;points=[[0,0.5],[1,0.5]];portConstraint=eastwest;whiteSpace=wrap;html=1;" vertex="1" parent="Xn4P08dQ9qw3xw5o0RPB-13">
          <mxGeometry y="86" width="160" height="26" as="geometry" />
        </mxCell>
        <mxCell id="Xn4P08dQ9qw3xw5o0RPB-18" value="dispatch" style="html=1;verticalAlign=bottom;endArrow=block;curved=0;rounded=0;" edge="1" parent="1" source="Xn4P08dQ9qw3xw5o0RPB-5" target="Xn4P08dQ9qw3xw5o0RPB-1">
          <mxGeometry width="80" relative="1" as="geometry">
            <mxPoint x="410" y="370" as="sourcePoint" />
            <mxPoint x="490" y="370" as="targetPoint" />
          </mxGeometry>
        </mxCell>
        <mxCell id="Xn4P08dQ9qw3xw5o0RPB-19" value="dispatch" style="html=1;verticalAlign=bottom;endArrow=block;curved=0;rounded=0;" edge="1" parent="1" source="Xn4P08dQ9qw3xw5o0RPB-13" target="Xn4P08dQ9qw3xw5o0RPB-1">
          <mxGeometry width="80" relative="1" as="geometry">
            <mxPoint x="410" y="370" as="sourcePoint" />
            <mxPoint x="490" y="370" as="targetPoint" />
          </mxGeometry>
        </mxCell>
        <mxCell id="Xn4P08dQ9qw3xw5o0RPB-20" value="dispatch" style="html=1;verticalAlign=bottom;endArrow=block;curved=0;rounded=0;" edge="1" parent="1" source="Xn4P08dQ9qw3xw5o0RPB-9" target="Xn4P08dQ9qw3xw5o0RPB-1">
          <mxGeometry width="80" relative="1" as="geometry">
            <mxPoint x="410" y="370" as="sourcePoint" />
            <mxPoint x="490" y="370" as="targetPoint" />
            <Array as="points" />
          </mxGeometry>
        </mxCell>
        <mxCell id="Xn4P08dQ9qw3xw5o0RPB-28" value="Opcion" style="swimlane;fontStyle=1;align=center;verticalAlign=top;childLayout=stackLayout;horizontal=1;startSize=26;horizontalStack=0;resizeParent=1;resizeParentMax=0;resizeLast=0;collapsible=1;marginBottom=0;whiteSpace=wrap;html=1;" vertex="1" parent="1">
          <mxGeometry x="300" y="870" width="160" height="86" as="geometry" />
        </mxCell>
        <mxCell id="Xn4P08dQ9qw3xw5o0RPB-29" value="- nombre :String" style="text;strokeColor=none;fillColor=none;align=left;verticalAlign=top;spacingLeft=4;spacingRight=4;overflow=hidden;rotatable=0;points=[[0,0.5],[1,0.5]];portConstraint=eastwest;whiteSpace=wrap;html=1;" vertex="1" parent="Xn4P08dQ9qw3xw5o0RPB-28">
          <mxGeometry y="26" width="160" height="26" as="geometry" />
        </mxCell>
        <mxCell id="Xn4P08dQ9qw3xw5o0RPB-35" value="- valor : String" style="text;strokeColor=none;fillColor=none;align=left;verticalAlign=top;spacingLeft=4;spacingRight=4;overflow=hidden;rotatable=0;points=[[0,0.5],[1,0.5]];portConstraint=eastwest;whiteSpace=wrap;html=1;" vertex="1" parent="Xn4P08dQ9qw3xw5o0RPB-28">
          <mxGeometry y="52" width="160" height="26" as="geometry" />
        </mxCell>
        <mxCell id="Xn4P08dQ9qw3xw5o0RPB-30" value="" style="line;strokeWidth=1;fillColor=none;align=left;verticalAlign=middle;spacingTop=-1;spacingLeft=3;spacingRight=3;rotatable=0;labelPosition=right;points=[];portConstraint=eastwest;strokeColor=inherit;" vertex="1" parent="Xn4P08dQ9qw3xw5o0RPB-28">
          <mxGeometry y="78" width="160" height="8" as="geometry" />
        </mxCell>
        <mxCell id="Xn4P08dQ9qw3xw5o0RPB-33" value="" style="endArrow=diamondThin;endFill=0;endSize=24;html=1;rounded=0;exitX=1;exitY=0.25;exitDx=0;exitDy=0;" edge="1" parent="1" source="Xn4P08dQ9qw3xw5o0RPB-28" target="Xn4P08dQ9qw3xw5o0RPB-5">
          <mxGeometry width="160" relative="1" as="geometry">
            <mxPoint x="760" y="470" as="sourcePoint" />
            <mxPoint x="920" y="470" as="targetPoint" />
          </mxGeometry>
        </mxCell>
        <mxCell id="Xn4P08dQ9qw3xw5o0RPB-37" value="&amp;lt;&amp;lt;abstract&amp;gt;&amp;gt;&lt;div&gt;Validador&lt;/div&gt;" style="swimlane;fontStyle=1;align=center;verticalAlign=top;childLayout=stackLayout;horizontal=1;startSize=40;horizontalStack=0;resizeParent=1;resizeParentMax=0;resizeLast=0;collapsible=1;marginBottom=0;whiteSpace=wrap;html=1;" vertex="1" parent="1">
          <mxGeometry x="410" y="340" width="160" height="182" as="geometry" />
        </mxCell>
        <mxCell id="Xn4P08dQ9qw3xw5o0RPB-38" value="# mensaje : String" style="text;strokeColor=none;fillColor=none;align=left;verticalAlign=top;spacingLeft=4;spacingRight=4;overflow=hidden;rotatable=0;points=[[0,0.5],[1,0.5]];portConstraint=eastwest;whiteSpace=wrap;html=1;" vertex="1" parent="Xn4P08dQ9qw3xw5o0RPB-37">
          <mxGeometry y="40" width="160" height="26" as="geometry" />
        </mxCell>
        <mxCell id="Xn4P08dQ9qw3xw5o0RPB-39" value="" style="line;strokeWidth=1;fillColor=none;align=left;verticalAlign=middle;spacingTop=-1;spacingLeft=3;spacingRight=3;rotatable=0;labelPosition=right;points=[];portConstraint=eastwest;strokeColor=inherit;" vertex="1" parent="Xn4P08dQ9qw3xw5o0RPB-37">
          <mxGeometry y="66" width="160" height="8" as="geometry" />
        </mxCell>
        <mxCell id="Xn4P08dQ9qw3xw5o0RPB-40" value="+ esValido(valor : String) : Boolean" style="text;strokeColor=none;fillColor=none;align=left;verticalAlign=top;spacingLeft=4;spacingRight=4;overflow=hidden;rotatable=0;points=[[0,0.5],[1,0.5]];portConstraint=eastwest;whiteSpace=wrap;html=1;" vertex="1" parent="Xn4P08dQ9qw3xw5o0RPB-37">
          <mxGeometry y="74" width="160" height="36" as="geometry" />
        </mxCell>
        <mxCell id="Xn4P08dQ9qw3xw5o0RPB-72" value="+ setMensaje(mensaje : String) : void" style="text;strokeColor=none;fillColor=none;align=left;verticalAlign=top;spacingLeft=4;spacingRight=4;overflow=hidden;rotatable=0;points=[[0,0.5],[1,0.5]];portConstraint=eastwest;whiteSpace=wrap;html=1;" vertex="1" parent="Xn4P08dQ9qw3xw5o0RPB-37">
          <mxGeometry y="110" width="160" height="36" as="geometry" />
        </mxCell>
        <mxCell id="Xn4P08dQ9qw3xw5o0RPB-74" value="+ getMensaje : String" style="text;strokeColor=none;fillColor=none;align=left;verticalAlign=top;spacingLeft=4;spacingRight=4;overflow=hidden;rotatable=0;points=[[0,0.5],[1,0.5]];portConstraint=eastwest;whiteSpace=wrap;html=1;" vertex="1" parent="Xn4P08dQ9qw3xw5o0RPB-37">
          <mxGeometry y="146" width="160" height="36" as="geometry" />
        </mxCell>
        <mxCell id="Xn4P08dQ9qw3xw5o0RPB-41" value="" style="endArrow=diamondThin;endFill=0;endSize=24;html=1;rounded=0;exitX=1;exitY=0.5;exitDx=0;exitDy=0;" edge="1" parent="1" source="Xn4P08dQ9qw3xw5o0RPB-38" target="Xn4P08dQ9qw3xw5o0RPB-1">
          <mxGeometry width="160" relative="1" as="geometry">
            <mxPoint x="620" y="690" as="sourcePoint" />
            <mxPoint x="780" y="690" as="targetPoint" />
          </mxGeometry>
        </mxCell>
        <mxCell id="Xn4P08dQ9qw3xw5o0RPB-42" value="NoNuloValidador" style="swimlane;fontStyle=1;align=center;verticalAlign=top;childLayout=stackLayout;horizontal=1;startSize=26;horizontalStack=0;resizeParent=1;resizeParentMax=0;resizeLast=0;collapsible=1;marginBottom=0;whiteSpace=wrap;html=1;" vertex="1" parent="1">
          <mxGeometry x="350" y="623" width="160" height="166" as="geometry" />
        </mxCell>
        <mxCell id="Xn4P08dQ9qw3xw5o0RPB-43" value="# mensaje : String" style="text;strokeColor=none;fillColor=none;align=left;verticalAlign=top;spacingLeft=4;spacingRight=4;overflow=hidden;rotatable=0;points=[[0,0.5],[1,0.5]];portConstraint=eastwest;whiteSpace=wrap;html=1;" vertex="1" parent="Xn4P08dQ9qw3xw5o0RPB-42">
          <mxGeometry y="26" width="160" height="26" as="geometry" />
        </mxCell>
        <mxCell id="Xn4P08dQ9qw3xw5o0RPB-44" value="" style="line;strokeWidth=1;fillColor=none;align=left;verticalAlign=middle;spacingTop=-1;spacingLeft=3;spacingRight=3;rotatable=0;labelPosition=right;points=[];portConstraint=eastwest;strokeColor=inherit;" vertex="1" parent="Xn4P08dQ9qw3xw5o0RPB-42">
          <mxGeometry y="52" width="160" height="8" as="geometry" />
        </mxCell>
        <mxCell id="Xn4P08dQ9qw3xw5o0RPB-78" value="+ esValido(valor : String) : Boolean" style="text;strokeColor=none;fillColor=none;align=left;verticalAlign=top;spacingLeft=4;spacingRight=4;overflow=hidden;rotatable=0;points=[[0,0.5],[1,0.5]];portConstraint=eastwest;whiteSpace=wrap;html=1;" vertex="1" parent="Xn4P08dQ9qw3xw5o0RPB-42">
          <mxGeometry y="60" width="160" height="40" as="geometry" />
        </mxCell>
        <mxCell id="Xn4P08dQ9qw3xw5o0RPB-80" value="+ getMensaje() : String" style="text;strokeColor=none;fillColor=none;align=left;verticalAlign=top;spacingLeft=4;spacingRight=4;overflow=hidden;rotatable=0;points=[[0,0.5],[1,0.5]];portConstraint=eastwest;whiteSpace=wrap;html=1;" vertex="1" parent="Xn4P08dQ9qw3xw5o0RPB-42">
          <mxGeometry y="100" width="160" height="26" as="geometry" />
        </mxCell>
        <mxCell id="Xn4P08dQ9qw3xw5o0RPB-79" value="+ setMensaje(valor : String) : void" style="text;strokeColor=none;fillColor=none;align=left;verticalAlign=top;spacingLeft=4;spacingRight=4;overflow=hidden;rotatable=0;points=[[0,0.5],[1,0.5]];portConstraint=eastwest;whiteSpace=wrap;html=1;" vertex="1" parent="Xn4P08dQ9qw3xw5o0RPB-42">
          <mxGeometry y="126" width="160" height="40" as="geometry" />
        </mxCell>
        <mxCell id="Xn4P08dQ9qw3xw5o0RPB-46" value="RequeridoValidador" style="swimlane;fontStyle=1;align=center;verticalAlign=top;childLayout=stackLayout;horizontal=1;startSize=26;horizontalStack=0;resizeParent=1;resizeParentMax=0;resizeLast=0;collapsible=1;marginBottom=0;whiteSpace=wrap;html=1;" vertex="1" parent="1">
          <mxGeometry x="600" y="500" width="160" height="166" as="geometry" />
        </mxCell>
        <mxCell id="Xn4P08dQ9qw3xw5o0RPB-47" value="# mensaje : String" style="text;strokeColor=none;fillColor=none;align=left;verticalAlign=top;spacingLeft=4;spacingRight=4;overflow=hidden;rotatable=0;points=[[0,0.5],[1,0.5]];portConstraint=eastwest;whiteSpace=wrap;html=1;" vertex="1" parent="Xn4P08dQ9qw3xw5o0RPB-46">
          <mxGeometry y="26" width="160" height="26" as="geometry" />
        </mxCell>
        <mxCell id="Xn4P08dQ9qw3xw5o0RPB-48" value="" style="line;strokeWidth=1;fillColor=none;align=left;verticalAlign=middle;spacingTop=-1;spacingLeft=3;spacingRight=3;rotatable=0;labelPosition=right;points=[];portConstraint=eastwest;strokeColor=inherit;" vertex="1" parent="Xn4P08dQ9qw3xw5o0RPB-46">
          <mxGeometry y="52" width="160" height="8" as="geometry" />
        </mxCell>
        <mxCell id="Xn4P08dQ9qw3xw5o0RPB-82" value="+ getMensaje() : String" style="text;strokeColor=none;fillColor=none;align=left;verticalAlign=top;spacingLeft=4;spacingRight=4;overflow=hidden;rotatable=0;points=[[0,0.5],[1,0.5]];portConstraint=eastwest;whiteSpace=wrap;html=1;" vertex="1" parent="Xn4P08dQ9qw3xw5o0RPB-46">
          <mxGeometry y="60" width="160" height="26" as="geometry" />
        </mxCell>
        <mxCell id="Xn4P08dQ9qw3xw5o0RPB-83" value="+ setMensaje(valor : String) : void" style="text;strokeColor=none;fillColor=none;align=left;verticalAlign=top;spacingLeft=4;spacingRight=4;overflow=hidden;rotatable=0;points=[[0,0.5],[1,0.5]];portConstraint=eastwest;whiteSpace=wrap;html=1;" vertex="1" parent="Xn4P08dQ9qw3xw5o0RPB-46">
          <mxGeometry y="86" width="160" height="40" as="geometry" />
        </mxCell>
        <mxCell id="Xn4P08dQ9qw3xw5o0RPB-81" value="+ esValido(valor : String) : Boolean" style="text;strokeColor=none;fillColor=none;align=left;verticalAlign=top;spacingLeft=4;spacingRight=4;overflow=hidden;rotatable=0;points=[[0,0.5],[1,0.5]];portConstraint=eastwest;whiteSpace=wrap;html=1;" vertex="1" parent="Xn4P08dQ9qw3xw5o0RPB-46">
          <mxGeometry y="126" width="160" height="40" as="geometry" />
        </mxCell>
        <mxCell id="Xn4P08dQ9qw3xw5o0RPB-50" value="dispatch" style="html=1;verticalAlign=bottom;endArrow=block;curved=0;rounded=0;exitX=0.75;exitY=0;exitDx=0;exitDy=0;entryX=0.965;entryY=1.12;entryDx=0;entryDy=0;entryPerimeter=0;" edge="1" parent="1" source="Xn4P08dQ9qw3xw5o0RPB-46" target="Xn4P08dQ9qw3xw5o0RPB-72">
          <mxGeometry width="80" relative="1" as="geometry">
            <mxPoint x="470" y="460" as="sourcePoint" />
            <mxPoint x="740" y="701" as="targetPoint" />
          </mxGeometry>
        </mxCell>
        <mxCell id="Xn4P08dQ9qw3xw5o0RPB-51" value="dispatch" style="html=1;verticalAlign=bottom;endArrow=block;curved=0;rounded=0;exitX=0.402;exitY=0.019;exitDx=0;exitDy=0;exitPerimeter=0;entryX=0.373;entryY=1.083;entryDx=0;entryDy=0;entryPerimeter=0;" edge="1" parent="1" source="Xn4P08dQ9qw3xw5o0RPB-42" target="Xn4P08dQ9qw3xw5o0RPB-74">
          <mxGeometry width="80" relative="1" as="geometry">
            <mxPoint x="660" y="690" as="sourcePoint" />
            <mxPoint x="480" y="490" as="targetPoint" />
          </mxGeometry>
        </mxCell>
        <mxCell id="Xn4P08dQ9qw3xw5o0RPB-53" value="NumeroValidador" style="swimlane;fontStyle=1;align=center;verticalAlign=top;childLayout=stackLayout;horizontal=1;startSize=26;horizontalStack=0;resizeParent=1;resizeParentMax=0;resizeLast=0;collapsible=1;marginBottom=0;whiteSpace=wrap;html=1;fillColor=default;strokeColor=default;" vertex="1" parent="1">
          <mxGeometry x="667" y="230" width="160" height="166" as="geometry" />
        </mxCell>
        <mxCell id="Xn4P08dQ9qw3xw5o0RPB-54" value="# mensaje : String" style="text;strokeColor=none;fillColor=none;align=left;verticalAlign=top;spacingLeft=4;spacingRight=4;overflow=hidden;rotatable=0;points=[[0,0.5],[1,0.5]];portConstraint=eastwest;whiteSpace=wrap;html=1;" vertex="1" parent="Xn4P08dQ9qw3xw5o0RPB-53">
          <mxGeometry y="26" width="160" height="26" as="geometry" />
        </mxCell>
        <mxCell id="Xn4P08dQ9qw3xw5o0RPB-55" value="" style="line;strokeWidth=1;fillColor=none;align=left;verticalAlign=middle;spacingTop=-1;spacingLeft=3;spacingRight=3;rotatable=0;labelPosition=right;points=[];portConstraint=eastwest;strokeColor=inherit;" vertex="1" parent="Xn4P08dQ9qw3xw5o0RPB-53">
          <mxGeometry y="52" width="160" height="8" as="geometry" />
        </mxCell>
        <mxCell id="Xn4P08dQ9qw3xw5o0RPB-85" value="+ esValido(valor : String) : Boolean" style="text;strokeColor=none;fillColor=none;align=left;verticalAlign=top;spacingLeft=4;spacingRight=4;overflow=hidden;rotatable=0;points=[[0,0.5],[1,0.5]];portConstraint=eastwest;whiteSpace=wrap;html=1;" vertex="1" parent="Xn4P08dQ9qw3xw5o0RPB-53">
          <mxGeometry y="60" width="160" height="40" as="geometry" />
        </mxCell>
        <mxCell id="Xn4P08dQ9qw3xw5o0RPB-86" value="+ setMensaje(valor : String) : void" style="text;strokeColor=default;fillColor=none;align=left;verticalAlign=top;spacingLeft=4;spacingRight=4;overflow=hidden;rotatable=0;points=[[0,0.5],[1,0.5]];portConstraint=eastwest;whiteSpace=wrap;html=1;" vertex="1" parent="Xn4P08dQ9qw3xw5o0RPB-53">
          <mxGeometry y="100" width="160" height="40" as="geometry" />
        </mxCell>
        <mxCell id="Xn4P08dQ9qw3xw5o0RPB-84" value="+ getMensaje() : String" style="text;strokeColor=none;fillColor=none;align=left;verticalAlign=top;spacingLeft=4;spacingRight=4;overflow=hidden;rotatable=0;points=[[0,0.5],[1,0.5]];portConstraint=eastwest;whiteSpace=wrap;html=1;" vertex="1" parent="Xn4P08dQ9qw3xw5o0RPB-53">
          <mxGeometry y="140" width="160" height="26" as="geometry" />
        </mxCell>
        <mxCell id="Xn4P08dQ9qw3xw5o0RPB-57" value="dispatch" style="html=1;verticalAlign=bottom;endArrow=block;curved=0;rounded=0;entryX=1;entryY=0.5;entryDx=0;entryDy=0;exitX=0.015;exitY=0.936;exitDx=0;exitDy=0;exitPerimeter=0;" edge="1" parent="1" source="Xn4P08dQ9qw3xw5o0RPB-54" target="Xn4P08dQ9qw3xw5o0RPB-38">
          <mxGeometry width="80" relative="1" as="geometry">
            <mxPoint x="660" y="590" as="sourcePoint" />
            <mxPoint x="740" y="590" as="targetPoint" />
          </mxGeometry>
        </mxCell>
        <mxCell id="Xn4P08dQ9qw3xw5o0RPB-59" value="EmailValidador" style="swimlane;fontStyle=1;align=center;verticalAlign=top;childLayout=stackLayout;horizontal=1;startSize=26;horizontalStack=0;resizeParent=1;resizeParentMax=0;resizeLast=0;collapsible=1;marginBottom=0;whiteSpace=wrap;html=1;" vertex="1" parent="1">
          <mxGeometry x="160" y="460" width="160" height="166" as="geometry" />
        </mxCell>
        <mxCell id="Xn4P08dQ9qw3xw5o0RPB-60" value="# mensaje : String" style="text;strokeColor=none;fillColor=none;align=left;verticalAlign=top;spacingLeft=4;spacingRight=4;overflow=hidden;rotatable=0;points=[[0,0.5],[1,0.5]];portConstraint=eastwest;whiteSpace=wrap;html=1;" vertex="1" parent="Xn4P08dQ9qw3xw5o0RPB-59">
          <mxGeometry y="26" width="160" height="26" as="geometry" />
        </mxCell>
        <mxCell id="Xn4P08dQ9qw3xw5o0RPB-61" value="" style="line;strokeWidth=1;fillColor=none;align=left;verticalAlign=middle;spacingTop=-1;spacingLeft=3;spacingRight=3;rotatable=0;labelPosition=right;points=[];portConstraint=eastwest;strokeColor=inherit;" vertex="1" parent="Xn4P08dQ9qw3xw5o0RPB-59">
          <mxGeometry y="52" width="160" height="8" as="geometry" />
        </mxCell>
        <mxCell id="Xn4P08dQ9qw3xw5o0RPB-62" value="+ esValido(valor : String) : Boolean" style="text;strokeColor=none;fillColor=none;align=left;verticalAlign=top;spacingLeft=4;spacingRight=4;overflow=hidden;rotatable=0;points=[[0,0.5],[1,0.5]];portConstraint=eastwest;whiteSpace=wrap;html=1;" vertex="1" parent="Xn4P08dQ9qw3xw5o0RPB-59">
          <mxGeometry y="60" width="160" height="40" as="geometry" />
        </mxCell>
        <mxCell id="Xn4P08dQ9qw3xw5o0RPB-76" value="+ setMensaje(valor : String) : void" style="text;strokeColor=none;fillColor=none;align=left;verticalAlign=top;spacingLeft=4;spacingRight=4;overflow=hidden;rotatable=0;points=[[0,0.5],[1,0.5]];portConstraint=eastwest;whiteSpace=wrap;html=1;" vertex="1" parent="Xn4P08dQ9qw3xw5o0RPB-59">
          <mxGeometry y="100" width="160" height="40" as="geometry" />
        </mxCell>
        <mxCell id="Xn4P08dQ9qw3xw5o0RPB-77" value="+ getMensaje() : String" style="text;strokeColor=none;fillColor=none;align=left;verticalAlign=top;spacingLeft=4;spacingRight=4;overflow=hidden;rotatable=0;points=[[0,0.5],[1,0.5]];portConstraint=eastwest;whiteSpace=wrap;html=1;" vertex="1" parent="Xn4P08dQ9qw3xw5o0RPB-59">
          <mxGeometry y="140" width="160" height="26" as="geometry" />
        </mxCell>
        <mxCell id="Xn4P08dQ9qw3xw5o0RPB-63" value="dispatch" style="html=1;verticalAlign=bottom;endArrow=block;curved=0;rounded=0;exitX=1.002;exitY=0.885;exitDx=0;exitDy=0;exitPerimeter=0;entryX=0;entryY=0.5;entryDx=0;entryDy=0;" edge="1" parent="1" source="Xn4P08dQ9qw3xw5o0RPB-60" target="Xn4P08dQ9qw3xw5o0RPB-38">
          <mxGeometry width="80" relative="1" as="geometry">
            <mxPoint x="660" y="590" as="sourcePoint" />
            <mxPoint x="740" y="590" as="targetPoint" />
          </mxGeometry>
        </mxCell>
        <mxCell id="Xn4P08dQ9qw3xw5o0RPB-68" value="LargoValidador" style="swimlane;fontStyle=1;align=center;verticalAlign=top;childLayout=stackLayout;horizontal=1;startSize=26;horizontalStack=0;resizeParent=1;resizeParentMax=0;resizeLast=0;collapsible=1;marginBottom=0;whiteSpace=wrap;html=1;" vertex="1" parent="1">
          <mxGeometry x="160" y="300" width="160" height="86" as="geometry" />
        </mxCell>
        <mxCell id="Xn4P08dQ9qw3xw5o0RPB-69" value="+ field: type" style="text;strokeColor=none;fillColor=none;align=left;verticalAlign=top;spacingLeft=4;spacingRight=4;overflow=hidden;rotatable=0;points=[[0,0.5],[1,0.5]];portConstraint=eastwest;whiteSpace=wrap;html=1;" vertex="1" parent="Xn4P08dQ9qw3xw5o0RPB-68">
          <mxGeometry y="26" width="160" height="26" as="geometry" />
        </mxCell>
        <mxCell id="Xn4P08dQ9qw3xw5o0RPB-70" value="" style="line;strokeWidth=1;fillColor=none;align=left;verticalAlign=middle;spacingTop=-1;spacingLeft=3;spacingRight=3;rotatable=0;labelPosition=right;points=[];portConstraint=eastwest;strokeColor=inherit;" vertex="1" parent="Xn4P08dQ9qw3xw5o0RPB-68">
          <mxGeometry y="52" width="160" height="8" as="geometry" />
        </mxCell>
        <mxCell id="Xn4P08dQ9qw3xw5o0RPB-71" value="+ method(type): type" style="text;strokeColor=none;fillColor=none;align=left;verticalAlign=top;spacingLeft=4;spacingRight=4;overflow=hidden;rotatable=0;points=[[0,0.5],[1,0.5]];portConstraint=eastwest;whiteSpace=wrap;html=1;" vertex="1" parent="Xn4P08dQ9qw3xw5o0RPB-68">
          <mxGeometry y="60" width="160" height="26" as="geometry" />
        </mxCell>
      </root>
    </mxGraphModel>
  </diagram>
</mxfile>
